<svg xmlns="http://www.w3.org/2000/svg" viewBox="0 0 512 512" fill="none">
  <defs>
    <linearGradient id="blade" x1="0" y1="0" x2="1" y2="1">
      <stop offset="0%" stop-color="#e8e8e8"/>
      <stop offset="100%" stop-color="#a0a0a0"/>
    </linearGradient>
    <linearGradient id="handle" x1="0" y1="0" x2="0" y2="1">
      <stop offset="0%" stop-color="#6b4226"/>
      <stop offset="100%" stop-color="#3d2210"/>
    </linearGradient>
  </defs>
  <!-- Blade -->
  <path d="M256 40 L280 180 L232 180 Z" fill="url(#blade)" stroke="#888" stroke-width="2"/>
  <!-- Blade tip -->
  <path d="M256 40 L244 90 L268 90 Z" fill="#d0d0d0"/>
  <!-- Handle -->
  <rect x="238" y="180" width="36" height="180" rx="4" fill="url(#handle)"/>
  <!-- Handle wrapping -->
  <rect x="238" y="200" width="36" height="6" rx="2" fill="#4a2a12"/>
  <rect x="238" y="220" width="36" height="6" rx="2" fill="#4a2a12"/>
  <rect x="238" y="240" width="36" height="6" rx="2" fill="#4a2a12"/>
  <rect x="238" y="260" width="36" height="6" rx="2" fill="#4a2a12"/>
  <rect x="238" y="280" width="36" height="6" rx="2" fill="#4a2a12"/>
  <rect x="238" y="300" width="36" height="6" rx="2" fill="#4a2a12"/>
  <rect x="238" y="320" width="36" height="6" rx="2" fill="#4a2a12"/>
  <rect x="238" y="340" width="36" height="6" rx="2" fill="#4a2a12"/>
  <!-- Ring -->
  <circle cx="256" cy="380" r="20" fill="none" stroke="#a0a0a0" stroke-width="5"/>
  <!-- Inner ring -->
  <circle cx="256" cy="380" r="10" fill="none" stroke="#c0c0c0" stroke-width="3"/>
</svg>
